<svg id="SvgjsSvg1001" width="550" height="550" xmlns="http://www.w3.org/2000/svg" version="1.1"
	xmlns:xlink="http://www.w3.org/1999/xlink" xmlns:svgjs="http://svgjs.com/svgjs">
	<defs id="SvgjsDefs1002"></defs>
	<g id="SvgjsG1008"><svg xmlns="http://www.w3.org/2000/svg" enable-background="new 0 0 600 600" viewBox="0 0 600 600"
			width="550" height="550">
			<path fill="#ececec"
				d="M307.1768799 144.5605774l-2.6298828 30.3300781-29.7700195 38.6799316-19.8798828-16.1000977c0 0 28.1098633-29.4299316 28.6899414-30.619873.4699707-.9499512 1.0898438-24.6398926 1.3100586-34C292.9593811 136.7800903 301.2099304 141.173172 307.1768799 144.5605774zM222.7269592 202.640625l12.1099854-1.9499969c.1065674 1.4208679.1416168 2.1895142.9900055 3.25 1.3300018 1.6100006 3.8399963 2.5100098 5.7100067 2.25 1.7899933-.2599945 3.3999939-1.4199982 4.3300018-2.9599915.8499908-1.4300079.6599884-2.8500061.519989-4.3899994l8.5100098-1.3700104 19.8799896 16.1000061 4.9100037 62.2400055c-10.9100037-2.4200134-22.2799988-2.2799988-33.3099976-.730011-4.7599945.6600037-9.6800079 1.4400024-14.2900085 2.8200073-3.5599976 1.0599976-8.219986 2.2600098-10.9799957 4.7600098-2.2099915 2.0099792-3.5800018 4.9199829-3.7200012 7.8999939-1.5999908-3.5200195-1.25-7.5700073-.8699951-11.4200134.8099976-8.1499939.4100037-15.9400024 1.0099945-24.0699921.480011-6.5200043.9700012-13.0599976 1.4900055-19.5800018"
				class="colorececec svgShape"></path>
			<path fill="#ececec" d="M222.7309265,202.6369324l-18.1206512-39.8736725l2.4763947-57.212822l-18.0269012,0.8554001
		c-0.3336182,1.000824-7.3097229,60.4443665-7.3097229,60.4443665s30.0125885,68.1389008,39.3964844,69.8069458"
				class="colorececec svgShape"></path>
			<path d="M556.5001831,471.7215881c-0.1223145-0.5488281-0.3149414-1.380127-90.3752136-33.7390137
			c5.3850098-12.4979248,11.3144836-24.7966003,16.795166-36.6499023c0.6913452-0.4439697,0.5423584-1.1640015,0.3061523-6.0554199
			c-0.8961487-19.0075378-3.3668518-38.8833313-7.7705078-59.2216797
			c-21.1328125-97.6660309-77.4838867-174.0849762-158.6762695-215.1826172l-0.1086426-0.0541992
			c3.1190491-3.9356384,3.6473694-6.7305527-1.4504395-10.4213867c-6.2090149-4.4973755-13.5994263-6.6046524-17.4560547-6.6245117
			c-2.4536133-1.7592773-5.1201172-3.2563477-7.9326172-4.4418945c-2.4204102-1.0263672-4.2304688-1.1289063-5.3735352-0.3085938
			c-3.8489685,2.7196503,1.0901184,6.6197433,5.3007813,8.7973633c-0.1418457,0.1645508-0.2797852,0.329834-0.4138184,0.496582
			c-29.1247559-11.9907227-58.3908691-19.9428711-86.9987793-23.6381836
			c-0.4784851-1.2453461-1.9822693-2.0454483-3.0429688-1.8500977c-0.8631439-2.5457001-3.1831207-3.0048065-4.9213867-1.4238281
			c-0.5030518,0.4530258-1.0134277,0.9013214-1.4296875,1.4023438c-1.1272278-1.4798279-3.4956818-1.1948395-4.3476563,0.4194336
			c-5.4927216-0.483223-16.0735931-1.4377899-17.0668945-0.9438477l-8.3308105-0.5512695c0,0-12.6899414,8.5795898,0,20.75
			h5.6738281c0.0842285,0.0625,0.1862793,0.1000977,0.2961426,0.1000977
			c0.1026764-0.0000916,5.9024048-0.0056458,5.5461426-0.0053711l9.043457-0.2143555
			c2.1772461,0.3344727,4.4624023,0.6584473,6.967041,0.9907227c0.4172363,0.8129883,0.8466797,1.6179199,1.28125,2.4138184
			l-2.9790039,0.1413574c-0.2060547,0.0097656-0.3852539,0.1455078-0.4501953,0.3408203
			c-0.3555756,1.0659714-7.2100677,59.505394-7.3320313,60.5439377c-0.0102539,0.0888672,0.0029297,0.1787109,0.0390625,0.2597656
			c1.1342773,2.5756836,25.8864746,58.5761719,37.2102051,68.6010742
			c-1.6789856,21.0850067-1.7305603,22.1503448-1.8806152,30.296402c-0.0795898,4.2763672-0.1611328,8.6982422-0.6030273,13.1425781
			c-0.3388672,3.4360352-0.7416992,7.6838379,0.7868652,11.3435059
			c-0.2624512,9.6105957,5.8757324,21.6386719,36.3278809,24.7712402c-1.2473145,5.4560547-3.1455078,13.121582-3.6972656,15.340332
			l-40.2338867-21.5361328c-0.2555695-0.1408691-0.5846405-0.0245361-0.6977539,0.2490234
			c-1.2067871,2.9182129-2.2373047,5.8435059-3.1108398,8.7719727c-1.4474182-2.0765991-2.2628021-3.2973328-2.3666992-3.3852539
			c-3.0879669-2.5805054-5.9297943-3.8129883-9.0327148-6.2490234c-1.4613953-1.1435852-3.5233459-1.654541-6.0527344-0.9870605
			c-6.78125-0.1289063-12.1494141,7.4543457-12.2451172,13.7102051c-0.0400391,2.9301758,0.7800293,5.9101563,0.0700684,8.75
			c-0.5700684,2.2802734-2.0700684,4.2099609-2.9299316,6.3901367c-1.9536133,4.9301758-0.0961914,11.0239258,4.1210938,14.1743164
			c3.9506683,8.2458191,12.4651031,9.8037415,15.8920898,5.0913086c1.8920746-2.5844421,1.3349304-6.0091858,1.4663086-9.0332031
			c0.1738281-3.925293,1.6826172-7.7109375,4.2446289-10.6816406l3.6811523-1.28125
			c-0.4785156,5.6972656-0.3342285,11.3830566,0.4594727,17.0302734c0.0786133,0.5585938,0.6035156,1.0283203,7.2119141,2.8261719
			c2.4256592,0.6602478,8.332428,2.7536316,11.6860352,3.5224609c2.8399963,0.6541443,3.0418701,0.953125,3.2597656,1.0085449
			c1.4213715,0.7335205,2.5270844,2.4449158,4.5893555,0.279541c0.2656097-0.2816772,0.7269592-0.7748718,1.1064453-0.6875
			c0.3173828,0.0664063,0.5166016,0.5107422,0.543457,0.9033203c0.042038,0.4968567-0.1020813,1.1560974-0.0507813,1.7519531
			c0.1275787,1.8686523,2.019989,2.537262,3.206543,0.8554688c0.3156586-0.4475098,0.5320587-0.9709167,0.855957-1.2861328
			c0.237793-0.2363281,0.621582-0.328125,0.78125-0.1826172c0.1245117,0.1123047,0.1611328,0.3095703,0.2109375,0.6210938
			c0.2495728,1.5502319,1.1360168,1.7481995,2.8393555,1.7568359c3.2464294,0.0184326,9.7454224,2.0241089,20.2451172,3.0683594
			c19.5794067,1.9544373,26.7717896-31.2192078,28.7250977-50.739502
			c7.3085938-0.5246582,15.2998047-1.3591309,23.7758789-2.4841309
			c33.8894348,72.578125,31.0223083,67.6097107,32.1489258,68.7363281
			c1.7431641,1.7331543,8.8134766-2.3793945,17.2419434-9.6677246c0.1794739,0.3269348,2.0619812,3.7702332,2.201416,3.9523926
			c-0.0651855,0.0644531-0.1254883,0.1357422-0.1513672,0.2045898c-0.5029297,1.3457031,5.2861328,11.3876953,5.3500977,11.4746094
			c1.7426453,2.3699646,3.644989,5.0334473,6.3115234,6.324707c1.9376526,6.1963501,9.2322083,6.8739929,14.361084,2.9489746
			c3.2839355-2.5129395,5.3359375-6.2709961,7.267334-9.9272461c3.019043-5.7155762,8.2399902-9.5905762,12.1047363-14.7507324
			c2.470459-3.298584,4.4555664-7.1811523,6.1230469-10.9484863c1.0275879-2.3220215,1.9140625-4.7800293,1.8815918-7.3190918
			c-0.057373-4.485199-2.9920349-7.9196167-7.9360352-7.262207c-0.4135742-0.4675293-0.9130859-0.8618164-1.5395508-1.1430664
			c-4.6577148-2.0869141-13.527832,1.7392578-16.0610352,3.2939453c-4.4545898,2.7324219-7.8491211,6.9638672-9.8349609,12.25
			c-1.9768066-0.0611267-4.0885925-0.0803528-6.1257324-0.1479492l-1.6723633-0.9326172
			c7.6530762-8.4155273,12.5656738-15.9067383,12.2719727-18.8496094c0.4836121-0.5432434-1.3066406-2.3823547-5.3093262-7.6069336
			c-1.9344482-2.4880981-8.2183533-10.3258362-9.5776367-11.7832031c-1.7215576-1.8586731-5.3492126-2.6534729-5.2744141-6.6425781
			c0.0146484-0.7294922,0.0322266-1.6367188-0.6479492-2.2177734c-1.4129639-1.2113647-3.4441833,0.818573-4.3989258,0.203125
			c-0.6191406-0.4091797-0.2353516-1.5800781,0.1757813-2.2705078c0.4853516-0.8291016,1.3886719-2.3710938,0.4995117-3.5615234
			c-0.9052734-1.2158203-2.6542969-0.7919922-3.9882813,0.0097656c-1.090332,0.6542969-1.9140625,0.890625-2.4555664,0.7119141
			c1.0908203-2.1162109,0.6152344-3.2460938-0.0053711-3.828125c-0.4326172-0.4042969-0.9448242-0.5322266-1.3964844-0.6455078
			c-1.379364-0.3453979-1.1067505-0.792511-1.8125-1.6884766c-1.3158569-1.6685181-3.3487244-2.9734802-5.0009766-4.28125
			c-3.6088867-2.875-6.9067383-5.1123047-10.0834961-6.8388672c-20.6965332-11.2312012-52.2373047-14.8041992-56.2028809-15.2165527
			l-4.8615723-61.6325836l29.6523438-38.5268555c0.0585938-0.0751953,0.09375-0.1660156,0.1020508-0.2617188l2.5625-29.5529785
			c11.3117676,6.4116211,25.7746582,15.404541,38.734375,28.4719238
			c54.4891357,54.9915009,82.7745056,143.1872711,88.6464844,220.3672028
			c0.4141541,5.3215332-0.8591309,14.2079773,2.5791016,18.7915039c1.6899414,5.5185547,3.3798828,11.0273438,5.0698242,16.532959
			c-47.7241211-17.0866699-93.1767578-33.192627-93.6333008-33.3547363c-0.0698242-0.0234375-0.1445313-0.03125-0.21875-0.0253906
			l-99.2402344,10.3300781c-0.4121094,0.0424805-0.5959473,0.5421143-0.3110352,0.8408203l0.2185059,0.2307129
			l-4.4023438,17.8000488l91.6408691,104.2236023l212.4455261-31.537323l6.7324219-25.6904297
			C556.2087402,472.2811584,556.6113892,472.215332,556.5001831,471.7215881z M459.7931824,450.7867737
			c-3.1009216-1.9543152-6.4622498-2.1818848-10.0842285-1.6242676
			c-0.0571899-0.1853943-6.6166077-21.5273438-11.0231934-35.9165039c2.9141541-3.8141785,4.8958435-8.8921509,7.0019531-13.2099609
			c2.7661133,3.4560547,5.5336914,6.9121094,8.3100586,10.3583984c0.2322998,0.2927551,0.6843262,0.2286987,0.840332-0.0976563
			c1.6162109-3.375,3.2329102-6.7597656,4.8496094-10.1435547l8.5356445,7.2685547
			c0.2755432,0.2358704,0.7032471,0.1054077,0.8041992-0.2421875c1.0162659-3.5138245,1.7642517-6.8494873,2.8598633-10
			c0.0944824-0.2631226,0.2138062-0.9429321,0.3232422-0.9726563c0.2676086-0.0131531,2.7110291,1.8298645,8.1772461,4.3876953
			c0.3138733,0.1443481,0.8379822,0.5184631,1.4226074,0.75
			C474.5198059,417.1007996,466.0952454,434.4184265,459.7931824,450.7867737z M254.6510925,197.0042877l-7.7963867,1.255127
			l-0.9111328-13.3735352c8.5231781-4.6396637,9.5345154-15.4399261,8.1989746-25.1008301
			c0.270752-3.2060547-0.1799316-6.8759766-0.9953613-9.6445313c-1.1188965-3.7780762-3.0405273-8.5263672-5.357666-12.0290527
			c3.6542511-5.2112274,1.6756134-10.0164185-3.5695801-13.8410568c-3.4594727-2.5222168-7.4746094-4.2768555-11.6733398-5.111084
			c-0.3752441-0.0744629-0.621582,0.3623047-0.3666992,0.6474609c1.5158691,1.6931152,2.498291,3.8615723,2.7753906,6.1169434
			c0.0649414,0.5273438-0.5505371,0.8710938-0.9746094,0.5507813c-3.5751953-2.7009277-7.8376465-4.5754395-12.3000488-4.7724609
			c-12.3315582-0.5445023-19.7731934,11.6938248-12.3833008,21.0903244
			c-1.3130341,0.4133148-2.4911957,0.9825439-3.4101563,2.0327148c0.0517426-1.1478882,1.7077026-39.2352371,1.6789551-39.3730392
			c10.967514,1.3957138,13.8056793,1.7001419,30.2875977,8.0957031
			c10.8525848,4.2100754,25.0951843,9.1228333,46.5356445,19.6127853
			c-0.3774414,15.9609375-0.911377,32.4311523-1.2451172,33.4584961
			C282.516571,167.681778,265.8061218,185.3250885,254.6510925,197.0042877z M236.2170105,203.6278229
			c-1.0147247-1.2681427-0.8321686-1.5657806-1.7077637-15.5212402c2.5948334,2.688736,9.5868683,5.2115021,10.9919434,5.1230469
			c0.0069275,0.1004639,0.4150085,6.0162048,0.3891602,5.6413574c0.1390381,1.5007782,0.306366,2.8074493-0.4428711,4.0837402
			c-0.0951996,0.100174-1.2794647,2.3487396-3.9794922,2.7404785
			C239.6852722,205.9403229,237.3781433,205.0321198,236.2170105,203.6278229z M223.0299988,202.0858307l-12.0727539-26.5644531
			c2.3322449,0.6283264,4.3886719,0.0100403,6.0205078-1.4765625c0.8911133,1.8662109,3.7197266,4.96875,4.4272461,5.7304688
			c3.5559845,3.7298889,7.7700195,5.9329071,12.0825195,6.8151855c-0.1437988,0.2875824,0.6723938,12.0011749,0.8164063,13.6796875
			L223.0299988,202.0858307z M206.0490417,117.9579086l-0.1367188,3.1552734
			c-5.5393066,3.1323242-12.4907227,3.5229492-18.3486328,1.0400391c0.1520996-1.2578125,0.2988281-2.4692383,0.4389648-3.6176758
			C193.2797546,120.6114731,202.8947449,118.6834946,206.0490417,117.9579086z M210.9191589,159.1212311
			c0.0804596,0.1014099,5.2230835,6.5005951,5.9135742,7.2116699c0.6015625,0.6193848,1.6303711-0.0168457,1.3579102-0.8364258
			c-2.1610107-6.4952698-3.2666473-9.9101563-2.5649414-18.0197754c7.6857147,2.9661407,21.5986938,0.5233154,29.5324707-6.4685059
			c5.3105164,5.4531555,7.4637451,13.2390289,8.2214355,20.8129883c0.7973633,7.7402344,0.0644531,17.8769531-7.9506836,22.2099609
			c-7.5635681,4.0852509-17.0991058,1.5552979-23.2958984-4.9404297c-1.0883789-1.171875-4.2431641-4.9648438-4.4633789-5.8173828
			c0.1781158-0.5166626-0.4867706-0.9001465-0.8466797-0.4951172c-1.8261261,2.0613708-4.1863556,2.4730377-6.4387207,1.4824219
			l-4.939209-10.8684082C206.2799377,160.5679474,208.5438995,158.9782867,210.9191589,159.1212311z M205.1659851,161.4884186
			l0.4353027-10.0598145c1.0278473,1.9606171,3.1916809,4.947464,4.559082,6.7199707
			C208.2486267,158.343399,206.3562012,159.3504028,205.1659851,161.4884186z M203.5099792,96.5204086
			c-0.3540039-0.6884766-0.1113281-1.5292969,0.2338867-2.0859375c0.4038544-0.6501083,0.8467255-1.582634,1.3481445-2.0610352
			c29.0771484,4.8920898,56.3342285,12.5048828,81.0270996,22.6306152c0.0796204,2.3328476,1.9454651,3.6406479,3.6462402,3.2038574
			c-1.1248474,1.7822571-1.5860901,3.4957428-0.3178711,5.2526855
			c-25.1108398-11.6037598-52.9206543-19.4445801-83.2272949-23.4169922
			C205.3151398,97.7696915,203.9974823,97.4689255,203.5099792,96.5204086z M302.8000183,125.6034164
			c1.0820313-0.3364258,1.9013672-1.135498,2.5869141-1.9658203
			c72.284668,35.0516739,121.7223206,95.7072525,147.012207,168.3369141
			c19.6333008,56.3837891,19.0361328,103.1318359,19.027832,103.5976563
			c-0.0002441,0.0124512,0.0058594,0.0229492,0.0063477,0.0351563c-0.5727539,0.7115784-2.8512268,9.4798889-3.1533203,10.5498047
			l-8.4394531-7.1875c-0.2449951-0.2073669-0.630188-0.1370544-0.7749023,0.1650391
			c-1.5957031,3.3408203-3.1914063,6.6816406-4.7871094,10.0146484c-2.7368164-3.4008789-5.4658203-6.8098145-8.1945801-10.2185059
			c0.0185547-3.8813477-0.1472168-69.2265625-28.611084-137.4338379
			c-25.2742004-60.5645599-66.0682068-108.1827698-124.2468262-136.2529297
			c2.1790466-0.1940536,3.415863-2.1726608,4.6164551-3.9306641
			C297.5421753,124.4920807,300.4290161,126.339241,302.8000183,125.6034164z M306.0148621,122.8333969
			c0.2414551-0.3195801,0.4821777-0.6394043,0.7182617-0.9643555c0.0290833,0.6589355,0.1568604,1.0439758,0.3310547,1.4838867
			C306.714325,123.1798325,306.3666687,123.0042953,306.0148621,122.8333969z M474.478241,336.26651
			c7.2884827,33.6565247,8.0245056,63.9737854,7.9443359,64.2207031c-0.0004883,0-0.0009766,0-0.0014648,0
			c-0.2878723,0-1.3180847-0.664032-1.6123047-0.7998047c-6.6911316-3.130249-7.428894-4.2779846-8.3789063-4.4558105
			c0.0178223-4.4511719-0.2983398-49.6096191-19.0742188-103.5510254
			c-25.1647339-72.2951965-72.3347168-130.3647308-142.0732422-166.1953125
			c1.782959-0.5571289,3.4951172-2.1604004,4.3427734-3.3193359c0.1323242-0.1811523,0.2792969-0.3618164,0.4196777-0.5424805
			C319.2238464,124.3375168,439.2891235,173.6399536,474.478241,336.26651z M314.6340027,111.2079086
			c5.901123,4.2669296,2.8988647,6.6506195,0.1835938,10.3681641c-1.0361023,1.4177017-3.3737793,3.3622208-5.1333008,3.0749512
			c-0.2984924-0.1421127-0.5462036-0.2680359-0.8659668-0.4284668c-0.8940125-0.7619476-1.4566345-2.3591385-0.7824707-4.2197266
			c0.5227051-0.7797852,1.4468689-2.2390594,2.0698242-3.3095703c0.3112183-0.5351639-0.4457092-1.0477219-0.8271484-0.5576172
			c-2.7175903,3.5041275-0.8372498,1.8791351-4.2255859,6.3144531c-0.7124023,0.9326172-1.4960938,1.8710938-2.5498047,2.1982422
			c-1.1674805,0.3623047-2.6020508-0.2001953-3.2680664-1.2832031c-0.8729553-1.4164658-0.1118469-3.3422928-0.1303711-3.2421875
			c0.0095215-0.0192871,0.0092773-0.0397949,0.0161133-0.0595703c0.5275879-1.5988159,0.2236938-0.540863,4.9277344-7.4287109
			c0.3561401-0.522644-0.3928833-1.085022-0.796875-0.6025391c-4.6767578,5.5674515-3.1011963,4.5091705-5.6289063,7.8574219
			c-1.2327881,1.6373901-2.4599304,4.1987076-4.5078125,4.3642578c-1.3881836,0.1181641-2.8110352-0.8242188-3.2646484-2.1289063
			c-0.9363403-2.6947556,2.7113953-5.8627396,7.6811523-11.8505859c0.4213562-0.5089111-0.3442688-1.1461868-0.7695313-0.6386719
			c-2.3406677,2.7062683-4.3542786,4.6586075-5.7329102,6.6474609c-0.001709,0.001709-0.003418,0.0029297-0.005127,0.0043945
			c-0.0003662,0.0003357-0.0027161,0.0025024-0.0031738,0.0029297c-0.6501465,0.6313477-1.3522949,1.0646973-2.109375,0.9946289
			c-0.9516602-0.0966797-1.6206055-1.0400391-1.7666016-1.8789063c-0.1518555-0.8691406,0.0712891-1.8623047,0.6630859-2.9511719
			c1.0327148-1.9033203,3.8413086-6.4345703,7.6025391-7.4101563
			C300.6061401,103.6901398,309.8433838,107.7369919,314.6340027,111.2079086z M290.2458191,106.9461899
			c-3.2252502-1.6631393-8.1745605-5.0129776-5.2075195-7.109375c2.1471863-1.5382156,8.9445801,2.5953598,11.1113281,4.0463867
			c-1.7997742,0.258812-3.647644,1.0500488-5.7336426,3.2145996
			C290.3715515,107.0370102,290.3171082,106.9830551,290.2458191,106.9461899z M286.1960144,113.9564438
			c-24.4477539-9.9960938-51.3935547-17.5366211-80.1179199-22.4262695c1.4789124-1.7633438,0.7439117-4.288269-1.2233887-5.0986328
			c-0.9145508-0.3759766-1.6962891-0.5351563-2.3393555-0.4677734c0.0102539-0.0834961,0.0026855-0.1679688,0.005127-0.2521973
			c28.3435059,3.690918,57.3349609,11.5703125,86.1936035,23.4279785
			C287.7915649,110.4084167,286.4932861,112.4117355,286.1960144,113.9564438z M174.9386902,101.5702133
			c-6.4169922-8.5595703,0.3857422-16.9648438,1.5742188-18.3164063l8.6855469,0.7041016
			c-4.3132324,4.9206543-5.1411133,11.4455566-2.2009277,17.4208984L174.9386902,101.5702133z M172.0080261,83.1786118
			c0.5792999-0.0874481,2.6869507-0.0079422,3.2705078,0.0158691c-1.9250488,2.4829102-7.032959,10.378418-1.5561523,18.3864746
			h-4.1850586C166.1169128,91.0682602,171.5461121,83.7694321,172.0080261,83.1786118z M184.1193542,101.4041977
			c-3.1518555-5.953125-2.2631836-12.5595703,2.3344727-17.3486328c0.5639648,0.0393066,1.1276855,0.0883789,1.6914063,0.1364746
			c-2.5403595,5.9276276-0.7675018,12.3303299,2.0478516,18.0778809
			C188.0348816,101.9808578,186.0307312,101.6954575,184.1193542,101.4041977z M188.6027527,95.3817368
			c-1.1420898-4.4228516-0.8027344-8.6269531,0.9560547-11.8378906c0.265625-0.484375,1.0517578-0.7373047,1.6293945-0.6884766
			c0.5546875,0.0566406,1.0737305,0.5087891,1.2075195,1.0507813c0.0092773,0.0383301,0.0407715,0.0627441,0.0583496,0.0969238
			c-1.1867676,3.6809082-1.3798828,7.7253418-0.5119629,11.4880371c0.1489716,0.6478348,1.1241608,0.4230652,0.9746094-0.2246094
			c-0.8857422-3.8378906-0.6279297-7.9882813,0.7255859-11.6875c0.0048828-0.0131836,0.0024414-0.0263672,0.0061035-0.0395508
			c0.3916016-0.4954453,0.9279327-0.9633102,1.4060059-1.3950195c1.2336273-1.1257324,2.7388153-0.8565445,3.3537598,1.1784668
			c-2.5993652,3.1618652-3.9528809,7.2717285-3.7004395,11.3625488c0.0404205,0.6638336,1.0391693,0.6025238,0.9980469-0.0625
			c-0.2382813-3.859375,1.0454102-7.7397461,3.5112305-10.7128906c0.0029297-0.001709,0.0063477-0.0012207,0.0092773-0.0029297
			c0.8805542-0.5289917,3.0877838,1.0021133,2.0585938,2.5693359c-2.5456543,2.8647461-3.7260742,6.800293-3.144043,10.5947266
			c0.099411,0.6532593,1.0887909,0.5021973,0.9882813-0.1523438c-0.5229492-3.4111328,0.5656738-7.0830078,2.8293457-9.6889648
			c0.6717529-0.5079117,1.6530762-0.2288132,2.5148926,0.1254883c1.7056427,0.7047348,1.9246216,3.1042328,0.1572266,4.0957031
			c-0.7946625,0.632164-1.2626801,1.6925049-1.7363281,2.4560547c-1.5439606,2.4915848,0.328598,3.8363266,1.1479492,4.6240234
			c1.7325134,1.6729431,2.1999664,4.3950272,0.862793,6.6230469l-11.7783203,0.5588379
			C191.3241882,102.4295883,189.5458679,99.0333481,188.6027527,95.3817368z M194.5185242,310.0377502
			c-2.1437531,4.2535095-7.6895752,5.2621155-11.1894531,2.1611328c1.2837524-2.1307373,3.032959-3.5631409,5.5251465-3.986084
			C191.8152313,307.6853027,193.0870361,309.0123291,194.5185242,310.0377502z M192.0426941,354.9364319
			c-2.0964355,2.8806458-7.0578613,3.3947754-11.3823242-0.9296875c-3.174881-3.1732483-4.6498413-7.7900391-4.3349609-12.1103516
			c0.3419495-4.6861572,3.8668823-8.2089844,4.4482422-13.1767578c0.6294708-5.3270264-0.2875671-10.7975464,2.0703125-15.628418
			c3.9433289,3.2918701,10.0052795,2.2518311,12.5002441-2.4814453c2.3843994,1.6160889,4.3941345,2.6799927,6.5783691,4.425293
			c-4.5430756,3.8521423-9.4103699,9.1530762-8.159668,15.0024414c-0.0612793,0.0380859-0.1164551,0.0869141-0.1577148,0.1518555
			c-2.7714844,4.3632813-4.5498047,9.3828125-5.1425781,14.5166016c-0.1293945,1.1191406-0.2036133,2.3105469,0.1274414,3.4404297
			c0.6602936,2.2538452,2.8697968,3.493927,4.6904297,2.2910156
			C193.2218933,352.1095276,192.9784851,353.6590881,192.0426941,354.9364319z M193.297821,348.8456116
			c-0.9606323,1.9197388-3.1526642,1.0552673-3.7478027-0.9804688c-0.3685913-1.2568054-0.1403961-2.7338562,0.0454102-4.0092773
			c1.3588867-0.1940918,2.7646484,0.1464844,3.8740234,0.9545898
			C193.2745056,346.2556458,193.2862701,347.1601257,193.297821,348.8456116z M193.6496277,343.7325745
			c-1.1618652-0.7121582-2.5407715-1.0305176-3.8984375-0.901123c0.2416992-1.3579102,0.5744629-2.699707,0.9819336-4.0192871
			c1.4394531-0.1865234,2.9824219,0.3991699,3.9411621,1.4863281
			C194.224823,341.4066467,193.8791199,342.5555725,193.6496277,343.7325745z M195.0978699,339.309967
			c-1.074707-1.0249023-2.550293-1.5820313-4.0344238-1.5200195c0.7822266-2.2751465,1.8105469-4.4628906,3.0578613-6.5141602
			c0.6606445,1.7687988,1.8642578,3.3356934,3.3671875,4.2504883
			C196.5382996,336.6888733,195.7375183,337.9618225,195.0978699,339.309967z M198.3222351,334.8348694
			c-2.1223145-1.1108398-3.7270508-3.8125-3.755127-6.3916016c-0.0738373-5.0531616,4.1640167-9.3839111,8.0444336-12.6694336
			l2.4216309,3.4936523c-1.333252,4.7246094-2.2348633,9.456543-2.6982422,14.1816406
			C202.1851349,333.4828796,199.6797333,334.3653564,198.3222351,334.8348694z M211.224823,353.7157288
			c-0.497345-0.165802-6.6964722-1.7553406-7.5488281-2.4111328c-1.8916016-13.6123047-0.0268555-27.4541016,5.543457-41.1513672
			l21.552002,11.536377c-4.3395996,11.3759766-6.510498,23.7907715-6.3024902,35.9719238
			C222.3525696,356.8797302,223.085434,357.6191101,211.224823,353.7157288z M259.2863464,365.0038147
			c-9.8690643-0.984314-17.0049591-3.039856-20.3383789-3.0742188c-1.7315369-0.0089722-1.7494507-0.2402344-1.8574219-0.9150391
			c-0.0605469-0.3789063-0.1362305-0.8505859-0.5239258-1.2011719c-0.625-0.5761719-1.609375-0.3388672-2.1582031,0.2089844
			c-0.4576874,0.4455566-0.6561584,0.9772034-0.9702148,1.4199219c-0.6480103,0.9177551-1.3295288,0.572113-1.3930664-0.3544922
			c-0.0427399-0.4914856,0.1008911-1.1566467,0.0507813-1.7509766c-0.1136322-1.6624451-1.6324921-2.4887085-2.9960938-1.2060547
			c-0.3327942,0.3056641-0.6169739,0.6781006-0.9287109,0.8828125c-0.9807129,0.6483459-1.5403442-0.2217407-2.6958008-0.8908691
			c-0.1323242-5.9291992,0.3085938-11.9182129,1.2946777-17.8178711l20.4763184,6.166748
			c9.7669373,2.940918,17.587677,3.1030273,21.7026367-7.1318359c1.3178711-3.2763672,1.7773438-6.7949219,2.2216797-10.1992188
			c0.0862427-0.652771-0.9050598-0.789856-0.9912109-0.1289063c-0.4365234,3.3417969-0.8876953,6.796875-2.1582031,9.9550781
			c-3.972168,9.8790283-11.7013855,9.1941223-20.4868164,6.5478516l-20.496582-6.1728516
			c-0.0332031-0.0102539-0.0664063-0.0065918-0.0996094-0.0097656c1.0422363-5.8693848,2.6240234-11.640625,4.7229004-17.1660156
			l17.869873,9.5654297c0.2827606,0.1546021,0.641922-0.0021362,0.7207031-0.3193359
			c0.020752-0.0825195,1.7060547-6.826416,3.1140137-12.7875977c11.2336426,1.2956543,22.7348633,0.1992188,33.5239258-3.1867676
			C284.9837646,334.0764465,278.0560608,366.8684082,259.2863464,365.0038147z M358.4113464,364.7264709
			c0.6850586-0.8828125,4.9560547-5.0195313,7.7929688-7.7109375l8.1789551,4.5610352
			c-0.1727295,6.651123-5.3840942,12.4436035-10.2192383,13.873291
			C364.152832,375.3390503,359.1578369,366.3088074,358.4113464,364.7264709z M368.7184753,385.9493713
			c0.012207-0.0415039,0.0273438-0.0820313,0.0283203-0.1271973c0.0644531-2.875,2.1074219-5.5732422,4.8583984-6.4140625
			c2.5405273-0.7807617,5.4484863,0.1083984,7.1899414,2.0942383c-1.8144531,1.2915039-3.920166,2.1240234-5.0585938,4.0844727
			c-1.1901855,2.0495605-1.6240234,4.5861816-1.2438965,6.9140625
			C372.2973938,391.1357422,369.6777649,387.6281128,368.7184753,385.9493713z M381.4841003,361.9530334
			c0.2280273,0.0117188,0.4135742-0.1269531,0.4873047-0.3300781c1.8886719-5.2304688,5.1889648-9.4082031,9.5439453-12.0800781
			c3.4570007-2.1211243,12.5357666-5.3715515,15.9023438-2.7746582c-4.5596619,1.1560669-8.1407776,4.910614-10.5532227,8.9711914
			c-4.7407837,7.9795532-5.5115967,16.9311218-15.2827148,25.1496582c-1.9916992-2.2998047-5.3430176-3.3291016-8.2695313-2.4379883
			c-2.7246094,0.8342285-4.8361816,3.2592773-5.4074707,6.0300293c-1.4562988-2.6923828-3.5148926-6.7687988-3.791748-7.9655762
			c5.0823975-1.3229065,10.9840088-7.3766174,11.2724609-14.7099609
			C377.3139648,361.8638306,379.5695801,361.8870239,381.4841003,361.9530334z M383.9369812,339.7008362
			c-8.4731445,0.3889771-37.6798401,29.0592651-40.329834,39.5046387l-9.951416-21.4521484
			c9.0859375-14.6726074,22.0515137-26.4648438,37.520752-34.1188965
			C373.699585,326.651123,381.585144,336.5241394,383.9369812,339.7008362z M345.8161316,298.1922913
			c1.5906982,1.2616272,4.2292786,2.9698181,5.1679688,4.6396484c1.0830688,1.9296265,2.2172241,1.2088318,2.9804688,1.9228516
			c0.7563477,0.7099609,0.0678711,2.2001953-0.4101563,3.0244141c-0.1181641,0.2041016-0.078125,0.4619141,0.0957031,0.6201172
			c1.3139648,1.1992188,3.3164063-0.0048828,3.9741211-0.4003906c0.7373047-0.4423828,2.1293945-0.9951172,2.6723633-0.2695313
			c0.4541016,0.6083984-0.0517578,1.5878906-0.5595703,2.4550781c-0.7495117,1.2597656-0.9985352,2.8662109,0.1381836,3.6162109
			c1.5003052,0.9715576,3.4797058-0.973999,4.2963867-0.2802734c0.9925232,0.8477173-1.3197327,3.8425293,4.0517578,7.3886719
			c1.6171875,1.0693665,1.6976624,1.2960815,2.2753906,1.9499512c-7.0661621,3.5209961-13.6079102,7.901123-19.5053711,13.0153809
			c0.0131836-0.1413574-0.0270996-0.2866211-0.1342773-0.3959961c-10.3345642-10.5765991-13.9958801-27.3050537-26.1489258-36.15625
			c-6.2910156-4.5810547-14.6240234-6.5234375-22.2871094-5.1767578c-0.658905,0.1135559-0.4703064,1.1086731,0.171875,0.984375
			c7.4033203-1.2910156,15.4501953,0.5751953,21.5263672,5.0009766c11.9099426,8.6733704,15.5692444,25.348877,26.0229492,36.046875
			c0.0925293,0.0944824,0.2145996,0.1413574,0.3374023,0.1464844c-6.689209,5.887207-12.5283203,12.7280273-17.324707,20.3540039
			l-20.7163086-44.6577148c-0.0917969-0.1982422-0.3027344-0.3164063-0.5195313-0.2861328
			c-30.224884,4.0367126-94.3966217,9.4497986-94.1181641-20.9084473c0.2448273-0.3841858-0.0766907-4.4147949,3.6396484-7.7946777
			c2.6377869-2.3884583,7.291748-3.6260376,10.7880859-4.6523438c4.2963867-1.2851563,8.7900391-2.0498047,14.2163086-2.8027344
			c20.4729919-2.8774109,33.0938416,0.7224121,33.1938477,0.7324219c0.3413086,0.03125,34.4101563,3.296875,56.2373047,15.1416016
			C339.0021667,293.1483459,342.2531433,295.3534241,345.8161316,298.1922913z M246.3083191,274.5858459
			c-11.0849609,1.5374756-14.344162,2.8844299-15.3442383,3.1240234
			c-6.4090576,1.8811035-12.1804199,3.7701416-13.7885742,10.7412109c-0.7773438-3.0136719-0.453125-6.2998047-0.1611328-9.2607422
			c0.8457794-8.5059509,0.3350983-14.8872375,1.1191406-25.5019684l7.4550781-17.03125l-5.5224609-0.9941406
			c-9.4248657-5.9628906-33.2508392-58.5602417-37.8032227-68.8896484
			c1.4077148-11.9953613,3.5712891-30.3015137,5.1757813-43.5873947c5.8986816,2.4060364,12.7554626,2.0768585,18.4233398-0.9099121
			c-0.7700195,17.7904587-0.9730988,22.48246-1.7514648,40.4660568c-0.003418,0.078125,0.0117188,0.1572266,0.0444336,0.2285156
			c0.045578,0.1002808,18.1752625,39.9823608,18.1274414,39.8818359c0.0987701,0.2076263,0.3468018,0.3121796,0.5239258,0.28125
			l11.5776367-1.8642578c0.0971069,1.0590057,0.1527557,1.8597412,1.0571289,2.9892578
			c1.3707428,1.6611481,4.061615,2.7148895,6.1674805,2.4267578c1.8686676-0.2702637,3.631546-1.4507751,4.6865234-3.1962891
			c0.0949554-0.3320007,0.929657-1.0012512,0.6328125-4.2294922l7.828125-1.2597656
			c1.6268311,1.3174744,17.6236877,14.2722168,19.5395508,15.8237305l4.8398438,61.3559723
			C269.3293152,273.0995178,258.2887878,272.8993225,246.3083191,274.5858459z M304.0617371,174.7010651l-21.7077637,28.2050781
			c-3.4736328-0.5354004-21.7766113-4.2709961-26.3911133-5.2158203l-0.3293457-0.2666016
			c5.4538574-5.7121582,27.8325195-29.1835938,28.4018555-30.3515625c0.4980469-1.0075684,1.0480957-21.0090332,1.3430176-33.421875
			c7.6412659,3.7423248,15.132019,7.7101135,21.2727051,11.1877441L304.0617371,174.7010651z M435.9855652,394.1424866
			c-5.873291-77.1906128-34.1634216-165.7190247-88.9335938-220.9941559
			c-16.9602356-17.1015472-39.606842-29.8635712-61.9345703-40.7470703
			c-21.9693298-10.7679367-37.7768402-16.2456589-46.9018555-19.7861252
			c-16.6298523-6.4538803-19.2892914-6.7457123-31.8413086-8.3215332c0.3522644-1.1143036,0.3857574-2.1487961,0.1660156-3.1950684
			C331.525116,117.6566391,389.723114,197.6156158,416.537323,261.8514709
			c28.619873,68.5622559,28.5656738,134.2304688,28.5463867,137.1523438c-2.184967,4.3785706-4.0953369,9.39328-6.871582,13.2099609
			C435.214386,407.9018555,436.3903503,399.3295593,435.9855652,394.1424866z M453.565155,465.1434631
			c-2.9914551-2.8776855-6.378418-6.0908203-10.6171875-7.5839844c-4.1118164-1.4472656-9.7368164-0.8925781-12.5375977,2.9667969
			c-2.162323,2.9831848-2.1895447,7.6071472-4.5844727,10.1513672c-2.7270508,2.8955078-7.6762695,2.4462891-11.3706055,0.7167969
			c-3.8387451-1.7965393-7.2342224-4.6945496-11.3979492-5.9492188c-4.3925781-1.3251953-10.0419922,0.1191406-11.4492188,4.3730469
			c-0.688324,2.0800476-0.2268677,4.5987244-1.2387695,6.3232422c-1.1298828,1.9257813-3.6635742,2.3662109-5.4912109,2.1591797
			c-2.1907654-0.2470093-4.2173157-1.2221985-6.4228516-1.9267578c-8.371582-2.6669922-18.2495117-0.3671875-24.581543,5.7226563
			c-0.4836731,0.4658203,0.2254333,1.1721802,0.6933594,0.7207031c6.0751953-5.8427734,15.5522461-8.0527344,23.5844727-5.4902344
			c2.1470032,0.6835632,4.285614,1.7047424,6.6142578,1.9677734c2.1225586,0.2373047,5.0922852-0.3076172,6.4658203-2.6474609
			c1.197998-2.0405579,0.652832-4.4780884,1.3256836-6.5146484c1.2246094-3.7011719,6.2670898-4.9160156,10.2119141-3.7304688
			c3.9776611,1.1985474,7.416687,4.0983887,11.262207,5.8984375c3.7270508,1.7441406,9.2431641,2.5458984,12.5229492-0.9375
			c2.6908875-2.8600464,2.5180969-7.2878418,4.6655273-10.2490234c2.5126953-3.4648438,7.6352539-3.9365234,11.3959961-2.6113281
			c4.1137695,1.4492188,7.4677734,4.6777344,10.4272461,7.5253906c0.2059326,0.1968384,0.5723877,0.2032471,0.7624512-0.1008301
			c0.0649414,0.2102051,0.1286621,0.4208984,0.1936035,0.6311035c0.1417542,0.460144,0.7850647,0.4718018,0.9477539,0.0224609
			c5.2807007-14.5920715,8.4678345-22.2709961,10.7832031-27.6772461
			c66.7321472,23.9760742,84.8910828,30.954834,88.9403992,32.7602539
			c-16.4240112,3.0725098-198.7595215,26.7419739-215.7157898,28.9384766l-73.8835449-78.0012207
			c4.501709-0.40625,24.3918457-2.8786621,114.541748-14.4807129c17.34375,6.1687012,40.1210938,14.2844238,63.3903809,22.6169434
			C443.480957,432.2930908,453.0845337,463.5883179,453.565155,465.1434631z M348.7765808,397.1698303
			c1.2094727,0.4284668,12.314209,4.3642578,28.7539063,10.2102051
			c-38.939209,5.0097656-108.9389648,13.9746094-113.2609863,14.3747559l-13.6125488-14.3710938L348.7765808,397.1698303z"
				fill="#000000" class="color000 svgShape"></path>
			<path
				d="M231.4479675 153.1121979c2.1906738-.8640137 3.6865234-2.2749023 3.3408203-3.1513672-.3457031-.8762207-2.4018555-.8862305-4.5925293-.0222168-2.190918.8640137-3.6867676 2.2749023-3.3410645 3.1513672C227.2008972 153.9662018 229.2570496 153.9762115 231.4479675 153.1121979zM232.5265808 153.9320221c-.5251465-.265625-1.1665039-.0554199-1.432373.4699707s-.0556641 1.166748.4697266 1.432373c.5251465.2661133 1.166748.0556641 1.4326172-.4697266S233.0519714 154.1981354 232.5265808 153.9320221zM245.9804382 150.3289948c1.9399414-.0317383 3.5002441-.8149414 3.4851074-1.7495117-.0153809-.934082-1.6005859-1.6657715-3.5405273-1.6340332-1.9401855.0319824-3.5004883.8149414-3.4853516 1.7492676C242.4550476 149.6290436 244.0402527 150.360733 245.9804382 150.3289948zM247.8244324 153.5069733c.1845703-.7062988-.2382813-1.4284668-.9445801-1.6130371s-1.4284668.2385254-1.6130371.9448242c-.1845703.7060547.2382813 1.4284668.9445801 1.612793C246.9176941 154.6361237 247.6398621 154.2132721 247.8244324 153.5069733zM211.9543152 168.9500885c-.1819153.12323-.5536652.1065063-.7734375.0947266-.5396118-.0133209-.6275177.7525635-.5419922.9941406.3149414.8876953 1.265625 1.2519531 1.8945313 1.4931641.6190338.2353363.9754333-.697525.3583984-.9335938-.4291992-.1650391-.8330078-.3349609-1.0854492-.5683594 1.1582031-.1501312 1.6687469-1.1967316.6000977-2.0039063-.3100586-.2333984-.6386719-.4521484-.9824219-.6523438 1.7423248-.83255 2.3723602-2.3014832.8007813-3.6523438-.8574219-.734375-1.9414063-1.2783203-3.1357422-1.5722656-.646225-.1544189-.8780518.8147888-.2392578.9707031 1.0429688.2568359 1.9848633.7275391 2.7236328 1.3613281 1.2810822 1.0980835.0965881 1.7714539-1.5195313 2.3701172-.4142151.1533356-.440979.7388611-.03125.9248047C210.9819336 168.2090607 211.7741241 168.7759094 211.9543152 168.9500885zM234.1647644 166.2616119c-1.9810638 2.7141113 1.236908 6.1613617 4.0683594 4.5322266.5701447-.328125.0787811-1.1950073-.4990234-.8671875-.8178711.4707031-1.996582.2841797-2.6274414-.4189453-.6303711-.7021484-.690918-1.8935547-.1342773-2.65625C235.3630676 166.3157349 234.5534821 165.7277069 234.1647644 166.2616119zM246.6379089 161.5145416c-.6020355-.2798462-1.0227203.6244965-.4257813.9042969.8721771.4108276.8932953 1.6570892.0395508 2.0976563-.5879517.3045197-.1269684 1.1933746.4589844.8886719.7167969-.3701172 1.1884766-1.1611328 1.1738281-1.96875C247.8693542 162.6307526 247.3683777 161.8573151 246.6379089 161.5145416zM96.1457214 147.5213776c.9780273-.2617188 36.6689453-6.2900391 50.3583984-8.6025391 5.9804688 3.5527344 16.050293 9.6435547 16.1523438 9.7050781.4289093.2615356.9418945-.2162933.6987305-.6650391l-5.8803711-10.8867188 2.3144531-.3886719c.3082275-.0511932.495285-.3695679.387207-.6660156l-6.065918-16.5029221c-.0722656-.1962891-.2592773-.3271484-.46875-.3271484-8.6622467-.0097733-59.9354706-.0675888-67.5463867-.0761719-.3403702 0-.584549.3362961-.4731445.6611328C95.1540222 147.7801666 95.5451355 147.6893463 96.1457214 147.5213776zM153.2922058 120.1874008l5.737793 15.6093674-2.4106445.4052734c-.3419037.0589142-.5172577.4334259-.3564453.7304688l5.340332 9.8867188c-3.1201172-1.8847656-10.1870117-6.1464844-14.7460938-8.8535156-.1067963-.0631256-.2298431-.0825958-.3388672-.0634766-40.3442383 6.8144531-48.7026367 8.2685547-50.3017578 8.5810547-1.0302734-2.0859375-6.027832-16.4130859-9.4223633-26.3710861L153.2922058 120.1874008z"
				fill="#000000" class="color000 svgShape"></path>
			<polygon points="146.579 126.14 145.888 123.552 95.709 125.256 96.861 129.568" fill="#000000"
				class="color000 svgShape"></polygon>
			<polygon points="98.611 133.49 99.829 136.849 123.923 134.096 123.774 132.233" fill="#000000"
				class="color000 svgShape"></polygon>
			<ellipse cx="313.762" cy="407.573" rx="6.625" ry="3.775" fill="#000000" class="color000 svgShape"></ellipse>
			<path
				d="M373.6408386 441.0057678c-2.2191162 2.8588562.4143372 6.9603577-.7915039 9.8828125-.8803711 2.1298828-3.6259766 2.9101563-5.7563477 2.5673828-4.7255859-.7671814-8.4395142-5.6364441-13.730957-5.6748047-2.871582.0195313-5.644043 1.7685547-6.8999023 4.3505859-1.2558594 2.5830078-.9189453 5.8447266.8383789 8.1142578.3968811.5147705 1.1994934-.0848083.7910156-.6113281-1.5302734-1.9775391-1.8237305-4.8164063-.7299805-7.0654297 1.0932617-2.2480469 3.5073242-3.7705078 6.0073242-3.7880859 4.7940369-.026947 8.6590881 4.866272 13.5639648 5.6611328 2.5751953.4160156 5.7524414-.5380859 6.840332-3.1728516 1.3085632-3.1691895-1.1859131-7.2752075.6577148-9.6503906 1.2167969-1.5683594 3.7197266-1.4960938 5.5610352-.6152344 1.9265747.9210815 3.6089478 2.6120605 5.5390625 3.734375 1.8979492 1.1035156 4.8398438 1.8173828 6.8862305.1953125.1850586-.1464844.2421875-.4033203.137207-.6142578-1.0205078-2.0488281-.4570313-4.8183594 1.2817383-6.3056641 1.7397461-1.4873047 4.5634766-1.6123047 6.4287109-.2880859.5404968.3822021 1.1177063-.4312439.5791016-.8144531-2.2578125-1.6054688-5.550293-1.4589844-7.6577148.3427734-1.9960938 1.7070313-2.6899414 4.6972656-1.7050781 7.1162109-1.640625 1.0068359-3.9223633.390625-5.4482422-.4970703-1.9451294-1.1303406-3.5013428-2.7631226-5.609375-3.7714844C378.2199402 439.04776 375.1823425 439.0194397 373.6408386 441.0057678zM348.6261902 428.2694397c1.0498047-2.2617188 4.112793-2.8808594 6.5952148-2.3232422 2.5949707.5823669 5.0019531 2.1316528 7.6289063 2.9707031 2.6420898.8427734 6.1777344.8935547 8.1821289-1.4941406.4256897-.5052185-.3410034-1.1502686-.765625-.6425781-1.6889648 2.0107422-4.8867188 1.8925781-7.1118164 1.1835938-2.6086426-.8313293-4.9508972-2.3724365-7.7143555-2.9941406-2.8735352-.6416016-6.4492188.1357422-7.7216797 2.8798828-1.196991 2.5817566.1114807 5.9459839-1.5693359 7.7529297-1.0234375 1.1005859-2.7993164 1.1064453-4.0078125.7783203-1.492218-.4071045-2.8287964-1.2851257-4.2949219-1.9912109-4.5356445-2.1865234-10.0439453-2.4003906-14.7358398-.5703125-.617157.2412415-.2516479 1.1710205.3632813.9316406 4.4379883-1.7285156 9.6484375-1.5273438 13.9384766.5390625 1.4628296.7071228 2.8548584 1.6162415 4.4663086 2.0556641 1.7304688.4711914 3.7665405.2680664 5.0029297-1.0615234C348.912262 434.0989685 347.5359802 430.6238403 348.6261902 428.2694397zM90.98703 293.7567444c.9277344-7.1560059 4.1650391-15.3754883 8.3381348-21.2905273 1.4262009 1.6347351 5.8202591 2.893219 8.1501465 3.3789063-1.4277649 2.4422607-2.6229248 3.5835266-2.3920898 7.6831055.9385834 16.6834412.7984009 17.7458191 1.855957 19.9130859 1.8908386 3.8740845 6.523674 4.2156067 8.5488281.0849609 1.0419846-2.1261902.6635742-3.1116028 2.059082-11.0419922.3515625-1.9951172.7143555-4.0546875.9511719-6.0546875 5.9404297-.532959 11.2189941-3.5859375 14.6235352-8.4365234 2.9420624 2.5191956 3.6576538 3.9278564 4.902832 6.765625.7861328 1.7919922 1.5991211 3.6445313 3.0947266 5.0087891 1.9487762 1.7779541 4.8214874 2.3798218 7.3095703 1.5439453 1.8049469-.6040039 2.8358917-1.941925 4.0800781-3.0341797 1.2338867-1.0839844 2.3378906-2.3876953 2.059082-4.5800781-.5044861-3.9682617-4.3516693-5.5996399-5.8400879-10.7353516 4.6887665 1.0959473 9.3453217.2044067 14.1096191-.779541.7443848 1.8684082.9951172 4.2094727.2280273 5.6604004-.8600769 1.6248474-2.5131378 2.9131165-3.0917969 4.8447266-1.3626099 4.5472412 4.045517 9.7279358 11.3154297 6.4287109 4.6616211-2.1152344 7.9355469-6.7792969 8.3408203-11.8818359.3671875-4.6296387-2.5322266-10.4067383-6.6855469-13.513916 4.3444366-2.5760803 7.4469452-6.1849365 9.5307617-10.4592438 5.5351563 2.5556641 10.1728516 6.8396149 13.1088867 12.1948395.315033.5758667 1.1939087.0975037.8769531-.4804688-3.0375977-5.5400391-7.8330078-9.9712067-13.5578613-12.6164703.7856445-1.7768555 1.3745117-3.6523438 1.765625-5.5812988 6.0180664-1.3413086 12.6071777-.1965332 17.7219238 3.2641602.5456085.3720093 1.1094513-.457489.5605469-.828125-5.2236328-3.5332031-11.9182129-4.746582-18.0898438-3.4899902 1.0183716-6.2765198-.2105865-12.288559-3.0705566-17.770752 4.6838989-5.667572 5.9638824-14.0765228 3.4338379-20.796875-.0722656-.1933594-.2553711-.3212891-.4609375-.3242188-6.534668-.1044922-13.0668945 2.3828125-17.9057617 6.7832031-.1325684.1206055-.1765137.2949219-.1464844.4592285-5.2536926-1.957901-10.889679-1.4734802-15.5795898.9206543-3.6210938-6.3242188-10.3537598-10.7839355-17.6552734-11.4345703-.2265625-.0039063-.4492188.1240234-.5205078.3457031-1.1947784 3.7418518-2.0748444 8.2086487-2.3930664 12.3994141-10.2233887.1469727-20.2927246 4.7194824-27.1730957 12.1882324-.7372208.0097046-9.4415741 1.7517548-18.6818848-3.6569824-5.9875259-3.5024109-7.4075928-5.2189178-13.7758789-3.4423828-4.1575928 1.1573792-5.8262634 1.3311157-11.9975624-2.6582031-3.4567528-2.2375183-7.7337723-4.5586853-11.6171875-2.6552734-5.7152443 2.8077698-5.1895142 11.8310547 2.5498047 15.3671875 9.0354385 4.1254578 19.8912468-2.0548096 26.4658241 1.7109375 4.4603195 2.5566406 4.7942581 7.7257996 20.5400391 5.4365234-2.170166 5.0524902-3.2246094 10.5849609-3.0974121 16.0883789-2.4659653 2.7178802-5.8977356 7.3413544-8.282959 9.9477692-2.2519531 2.4609375-3.28125 3.7988281-2.0830078 7.2783203 2.7715073 8.0527344-7.3305664 18.0033875-2.1264648 26.4189453 2.3786087 3.8469238 7.1515045 4.1061096 8.8876953-.4208984C90.6650467 296.6205139 90.8041458 295.2337952 90.98703 293.7567444zM118.0133972 285.4647522c-.2412109.0166016-.4360352.2041016-.4624023.4443359-.2304688 2.0957031-.6157227 4.2851563-.9882813 6.4023438-1.4019089 7.9526062-1.0155258 8.8205872-1.9726563 10.7753906-.5341797 1.0888672-1.6254883 2.2929688-3.0869141 2.4052734-1.6191406.0996094-3.0375977-1.203125-3.6655273-2.4902344-.7431641-1.5224609-.8461914-3.3603516-.9375-4.9814453-.7122879-14.1444092-1.067421-15.2464905-.6787109-17.3127441 9.3902435.6254578 17.851944-3.7143555 19.6635742-6.2680664.449707-.6337891.7397461-1.4094238.7668457-2.1782227 1.6496735 1.9882202 3.6656342 3.4276123 5.6999512 5.0876465C129.0441589 282.1053772 123.8473816 285.0592346 118.0133972 285.4647522zM181.275116 226.9850006c-2.1177063-3.7390442-3.9202728-5.6407013-6.1411133-7.4602051 1.7236328-4.0649414 5.8466797-7.0129395 10.2456055-7.359375C185.9523621 217.393692 184.4909363 222.9022369 181.275116 226.9850006zM167.5309753 214.3553619c4.5688477-4.1542969 10.7016602-6.5214844 16.8754883-6.5253906.3842773 1.0822754.6572266 2.2036133.840332 3.3425293-4.6450195.3891602-8.9956055 3.4553223-10.9177246 7.7021484-2.5859375-2.0425262-3.9886932-3.2849426-6.8459473-4.4904785C167.4985046 214.3729401 167.5168152 214.3685455 167.5309753 214.3553619zM68.1564636 230.9871979c-5.6834602.4649353-12.3125801 2.0911865-17.8740273-.4492188-7.1510315-3.2659912-7.2486153-11.2381897-2.5244141-13.5585938 3.4946671-1.716568 7.5827446.6222382 10.6337891 2.5966797 6.4789848 4.1888885 8.44524 3.9985352 12.8090858 2.78125 6.0611115-1.6867676 7.0798798-.128891 13.0024414 3.3427734 5.4802246 3.206543 11.90625 4.5532227 18.206543 3.8867188-2.0133362 2.375351-3.6902237 4.9768982-5.0688477 7.9240723C75.1916122 241.080658 83.8972778 229.6894836 68.1564636 230.9871979zM89.2375183 297.5497131c-1.4191208 3.6984558-5.1275864 3.4481506-7.1035156.2539063-4.8958511-7.9198608 5.157547-17.6940308 2.2211914-26.2197266-1.0097656-2.9316406-.3530273-3.8417969 1.875-6.2763672 2.1881332-2.3908081 5.1907043-6.3886108 7.5944824-9.1679688.2380371 3.887207 1.0656738 7.7329102 2.5183105 11.3496094.2443848.6109619 1.1757278.2451782.9277344-.3730469-4.5996094-11.4531403-2.8183594-25.2578278 4.5375977-35.1689606 6.5932617-8.8808594 17.541748-14.4494629 28.6789551-14.6391602-.2497559 4.3537598.0134277 8.7373047.8132324 13.0356445.1231384.6585541 1.1035004.4647064.9833984-.1835938-1.2514648-6.7250977-1.1630859-13.659668.1923828-20.3520508 5.8469238 1.4765625 11.0546875 5.6923828 13.6738281 11.1206055.2862091.5952148 1.189743.1639252.9003906-.4335938-2.75-5.7006836-8.2241211-10.1262207-14.3657227-11.6660156.3161621-1.4230957.6691895-2.8383789 1.1025391-4.2324219 7.8959961.8623047 15.0390625 6.3652344 17.8579102 13.8017578.2354889.6155243 1.1699524.2657318.9355469-.3554688-.2739258-.722168-.5993652-1.420166-.9482422-2.1054688.1908569-.0885315.4805145-.082489.6074219-.3847656 6.2788849-2.8961639 13.7430115-2.0852509 19.3266602 2.4169922 2.1907349 1.7649078 4.3222198 3.2149048 6.0639648 5.3916016 4.9742737 6.2156525 7.6500549 14.356781 6.1855469 22.6005859-1.2814941.322998-2.5375977.7451172-3.7441406 1.2890625-.600235.2722015-.1968384 1.1810303.4111328.9121094 1.0048828-.4536133 2.0463867-.8168945 3.1071777-1.1098633-.3735352 1.684082-.902832 3.3227539-1.5905762 4.8818359-.7308807-.3132324-1.0363007.646759-.4511719.8911133.0080566.003418.015625.0078125.0236816.0112305-9.1522369 18.7384491-35.932724 17.5650482-46.4157715-.9213867 3.5649414-1.5036621 7.371582-2.4304199 11.1972656-2.6699219.6958923-.0444183.5538788-1.0852966-.0625-.9980469-3.9707031.2485352-7.921875 1.215332-11.6171875 2.786377-.2802734-.5397949-.546875-1.0861816-.7890625-1.6437988-.2644958-.6062164-1.1815338-.207901-.9169922.3984375.2434082.5603027.5097656 1.1101074.7900391 1.6530762-3.529541 1.6159668-6.8027344 3.7858887-9.5961914 6.4299469-.4818802.4572449.2141342 1.1759949.6875.7265625 2.7314453-2.5854492 5.9350586-4.7048492 9.3894043-6.2783356 7.7446899 13.7661285 24.807663 18.8699188 37.7590332 11.950943 4.0217285 2.8049316 6.9824219 8.5134277 6.6352539 12.8830566-.6707306 8.4458618-9.3587341 13.858551-14.7480469 11.4296875-2.2514648-1.0136719-3.5761719-3.5302734-2.953125-5.609375.4980774-1.6624756 2.1311035-2.9862366 3.0175781-4.6650391 1.3222656-2.5.2666016-6.7841797-1.5234375-8.8007813-.4381866-.4938354-1.1874084.1672974-.7480469.6640625.2641602.2973633.5012207.6740723.7229004 1.0786133-4.4108887.907959-9.3430176 1.8479004-13.9318848.6196289-.208252-1.1589355-.2329102-2.3227539-.0483398-3.5224609.100769-.6561584-.8879852-.8031616-.9882813-.1523438-.7744141 5.0322266 1.8774414 8.8984375 3.9394531 11.3681641.9130859 1.0947266 1.9892578 2.5683594 2.2041016 4.2597656.2084961 1.6367188-.5063477 2.6298828-1.7270508 3.7011719-1.2476349 1.0971069-2.1787109 2.3154297-3.7373047 2.8388672-2.1230469.7099609-4.6625977.1748047-6.3183594-1.3349609-2.1643372-1.9749146-2.8002319-5.2585144-4.456543-7.8818359-2.7516937-4.3586426-8.5308685-6.8246155-11.0351563-11.1074219-1.3798828-2.3623047-1.5288086-5.1025391-.3793945-6.9804688.3453598-.5623779-.5064926-1.0869141-.8525391-.5214844-1.3218918 2.1589661-1.3459625 5.5537415.8359375 8.7280273-.0151367.0124512-.0336914.0183105-.0478516.0327148-8.0810623 8.268158-25.5906296 2.1345825-25.9228516.324707.5065384-.6795044-.4240265-1.3095398-.8825684-.486084-4.5217285 6.0820313-8.0698242 14.8771973-9.0568848 22.4904785C89.8277206 294.9811096 89.6886215 296.3734131 89.2375183 297.5497131z"
				fill="#000000" class="color000 svgShape"></path>
			<path
				d="M122.58078 242.1991119c12.8807983-1.8496246 21.8334045 3.2050781 22.3984375 3.2050781.5381927 0 .6936035-.736084.206543-.9550781-7.0283203-3.1835938-15.1064453-4.3349609-22.746582-3.2402344C121.7992401 241.3003082 121.9062729 242.277359 122.58078 242.1991119zM159.9255066 257.6522522c.0019531 0 .003418 0 .0058594 0 3.0600586 0 5.8774414-2.1093903 6.9414063-4.9199371.7431641 1.6308594 2.0986328 2.9785156 3.7705078 3.6601715 2.9489746 1.2037048 6.9108582-.4630432 7.9575195-3.9814606.1902161-.6364288-.7702942-.9147797-.9580078-.2851563-.8834076 2.9689178-4.2621155 4.3032379-6.621582 3.3408203-1.9238281-.7849121-3.3513184-2.5976563-3.6865234-4.6450195.4551086-.2221222.4361877-.2826691 2.5402832-2.8349609.2033691-.2468262.7365723-.6520996.532959-.9824219-.1743164-.2832031-1.0800781-.2685547-1.3737793-.3088379-1.9863281-.2729492-3.9985352-.3579102-6.0007324-.2526855.4240723 1.0146484 1.8012695 3.8129883 3.2578125 4.3986816-.2958984 3.1120605-3.2280273 5.8108063-6.3598633 5.8108063-.0014648 0-.003418 0-.0048828 0-3.1801758-.0039063-6.1572266-2.7900543-6.3701172-5.9629059-.0452576-.6740875-1.0419617-.5854492-.9980469.0664063C152.8092957 254.4901276 156.1828308 257.6483459 159.9255066 257.6522522zM159.7570496 239.7887115c1.4833984-.5368652 2.2504883-2.1745605 1.713623-3.6577148s-2.1745605-2.2502441-3.657959-1.713623c-1.4831543.5371094-2.2502441 2.1748047-1.7133789 3.657959S158.2738953 240.3255768 159.7570496 239.7887115zM176.5766296 240.3089752c1.4831543-.5368652 2.2502441-2.1743164 1.7133789-3.6577148-.5368652-1.4831543-2.1745605-2.2504883-3.6577148-1.7133789-1.4831543.5368652-2.2502441 2.1743164-1.713623 3.6577148C173.45578 240.0787506 175.0932312 240.8460846 176.5766296 240.3089752zM175.7497253 486.091217c-2.9111328 3.9338379-8.2709961 5.5456543-12.8657227 6.3857422-5.3457031.9772949-10.8059082 1.6252441-16.2460938 1.260498-13.9966431-.9388123-15.63797-5.2633057-17.114502-6.5603027-.5549316-.4873047-1.2243652-.8032227-2.2824707-.7248535-1.3186035.0974121-1.9794922.7072754-2.2116699 1.9995117-.4060059 2.2595215 1.1132813 5.7397461 2.6894531 7.3317871.2287598.230957.484375.4272461.7321777.6337891-.3652649.397644.3560028 3.2178955 3.9091797 25.098114.7462769 4.6025391 2.0114594 6.9399414 8.5888672 8.0986328 7.8195801 1.3789673 16.307724 1.302124 24.5112305-.4755859 6.5417633-1.4173584 8.0219727-3.7559204 9.015625-9.7890625 3.7387695-22.6855469 4.5490112-22.4362488 3.9875488-22.9570007C186.1167297 491.6122437 180.7376862 479.3492737 175.7497253 486.091217zM177.5480652 497.1083069c-2.4184875 12.0075989-3.3938446 18.4228821-4.0757294 22.1733093-.9413452 5.1773071-1.6695862 7.460022-8.2240753 8.8803711-7.859375 1.703125-16.2021484 1.8642578-24.1254883.4677734-6.2696838-1.104248-7.1178131-3.2133179-7.7753906-7.2744141-1.3670654-8.4154663-2.6802521-15.8464966-3.9716797-24.2431335 4.5495605 3.0441284 11.4676819 3.0725708 15.7548828 3.4956055 8.1404419.466217 27.6605225-1.3836975 32.3151855-3.6494141C177.471405 497.0143127 177.5050964 497.0658264 177.5480652 497.1083069zM128.8649597 485.8221741c.6728516-2.1708984 2.7163086-3.8896484 4.9697266-4.1796875 2.2548828-.2890625 4.6660156.8525391 5.8681641 2.78125.2099152.3362427.7424469.3108826.8920898-.0888672 1.3256836-3.5166016 5.4047852-5.7998047 9.0957031-5.0820313.6588898.1176453.8330383-.8573914.1904297-.9824219-3.8500977-.7441406-8.0825195 1.4111328-9.8583984 4.8916016-3.6381073-4.3882751-10.5001068-2.8372192-12.112793 2.3632813C127.7140579 486.1570435 128.6687622 486.45401 128.8649597 485.8221741z"
				fill="#000000" class="color000 svgShape"></path>
			<path
				d="M155.3005066 507.4642639c-3.8217773 0-6.923584 1.701416-6.923584 3.7954102 0 2.1071472 3.1018066 3.7956238 6.923584 3.7956238s6.9104004-1.6884766 6.9104004-3.7956238C162.210907 509.1656799 159.1222839 507.4642639 155.3005066 507.4642639zM202.9308777 422.2420959c-.2614899-.2079468-.6416016-.1022339-.7695313.1962891-1.8139648 4.2431641-4.9106445 9.2519531-9.3120117 9.0283203-5.91185-.3040161-12.169342-2.3074951-17.3393555 1.0234375-5.1582031 3.3242188-8.3491211 9.4345703-8.128418 15.5673828.156189 4.3442383 1.848114 8.498291 4.1552734 15.1728516.0410156.1186523.1257324.2072754.2270508.2651367-8.0371094 5.7009277-13.8291016 14.6025391-15.6032715 24.0666504-.2399902.2155762-.4621582.451416-.6604004.7072754-.964859-1.3284302-2.613205-2.1951294-4.4023438-2.0634766 2.7657471-7.2543945 3.0033417-15.6634827-.1386719-23.3896484.2124023-.0546875.3737793-.2368164.3779297-.4667969.2558594-14.5373535 6.4482422-28.7290039 16.9914551-38.9804688 5.3518066.9797668 12.1821594-.7208252 17.3537598-2.4824219 19.3667297-6.5967102 14.4365692-31.7787476-1.6030273-38.6953125-.3025665-.1285095-.6456909.0602112-.6933594.3876953-.5615234 3.8945313-1.9995117 8.7011719-5.6616211 9.4804688-4.9507599 1.0552979-10.6083679.7774353-14.1762695 4.7060547-3.5546875 3.9140625-4.8520508 9.7089844-3.3046875 14.765625.8857422 2.8945313 2.5820313 5.4082031 4.2226563 7.8388672.0681915.100769 2.7761841 4.1017761 2.6052246 3.8491211-10.184082 10.1877441-16.2270508 24.0307617-16.697998 38.2724609-1.5268555-3.3208008-3.623291-6.4038086-6.1611328-9.0356445.2519531.0690918.5185547-.0617676.605957-.3134766 3.3317108-9.6365967 5.3272705-14.6201172 5.5263672-20.1621094.2919922-8.1123047-3.9282227-16.1953125-10.7519531-20.5927734-6.8171082-4.3951416-15.1708145-1.7410889-22.9985352-1.3369141-5.980957.3203125-10.1279297-6.4257813-12.565918-12.1269531-.1305771-.3046875-.5143127-.3992615-.7695313-.1962891-20.779335 16.3977661-18.9393158 56.073822 12.9511719 58.2255859 8.3685684.564209 19.3344116.3851318 26.9074707-3.197998 9.2327728 9.2378235 11.3845367 22.4342957 6.833252 33.6828613-1.112793.3605957-2.1025391 1.1008301-2.7270508 2.1069336-.3481293.56073.4990234 1.0896606.8496094.5273438 1.6255798-2.617218 5.5844574-2.4660645 6.9604492.3535156.1783905.3652649.6937408.3748169.8881836.0205078 1.3131714-2.4043884 4.5715637-3.0384521 6.6889648-1.1894531.4988708.4353333 1.155838-.3174133.6582031-.7519531-1.5229034-1.3320007-3.8091888-1.8000183-5.9208984-.7307129.4882813-2.237793 1.2045898-4.4362793 2.1262207-6.5617676 2.708252-1.2119141 6.2956543-.0595703 7.7590332 2.5317383.1699982.2996521.6340179.373291.8564453.0234375.8359375-1.3046875 2.5913086-1.9824219 4.0874023-1.5664063 1.4941406.4121094 2.6586914 1.890625 2.7089844 3.4384766.0203705.6661072 1.0214081.6334839.9990234-.03125-.0644531-2.0009766-1.512207-3.8388672-3.4423828-4.3720703-1.6870117-.4619141-3.5698242.1171875-4.7382813 1.3974609-1.689209-2.300293-4.9055176-3.3989258-7.6628418-2.6811523 2.8803711-6.0209961 7.4064941-11.3579102 12.9865723-15.1242676 5.7096558 2.6357422 13.8675385 2.76651 20.1118164 2.3464355C217.1978302 464.5490112 218.6445313 434.6444702 202.9308777 422.2420959zM161.1994324 411.2381897c-1.4458008-4.7255859-.2333984-10.1425781 3.0888672-13.8007813 3.2890167-3.6203613 8.6228943-3.3336182 13.644043-4.3994141 3.222168-.6855469 5.4082031-4.0214844 6.3422852-9.6621094 14.4762573 6.7904358 19.6286926 30.2478027 1.0854492 36.5634766-13.4742584 4.593689-16.8338013 1.8423767-17.6079102 2.5107422C164.3808289 417.4555054 162.2176514 414.5649719 161.1994324 411.2381897zM116.2770691 454.9549866c-30.8555984-2.0805359-32.3170853-40.0705261-12.9057617-56.0341797 2.5986328 5.8535156 6.949707 12.4589844 13.2739258 12.1279297 7.9721146-.4085388 15.9085541-3.0071106 22.4052734 1.1787109 6.5332031 4.2109375 10.5742188 11.9501953 10.2949219 19.7177734-.2744751 7.6157837-5.0928345 17.7085266-5.4936523 19.953125-.0995483-.2588501-.4172668-.396637-.6875-.2578125C142.4967346 451.8197937 135.7247162 456.2743835 116.2770691 454.9549866zM193.0724792 465.1766663c-8.7666016.5908203-15.7236328-.265625-20.1201172-2.4755859-.1685791-.0865784-.373642-.0665588-.5244141.0458984-2.3637085-6.8382874-3.9017181-10.6911316-4.0473633-14.7246094-.2080078-5.7880859 2.8032227-11.5546875 7.6713867-14.6923828 4.8334503-3.1145935 10.7740173-1.169281 16.7460938-.8652344 4.7607422.2392578 8.0439453-4.6357422 10.0175781-9.0283203C217.3953552 435.5932617 215.8293152 463.6403198 193.0724792 465.1766663z"
				fill="#000000" class="color000 svgShape"></path>
			<path
				d="M198.6281433 438.8329163c-1.6472473 8.6170959-7.6729126 16.0662842-16.3579102 19.2841797-.6144104.2272034-.2782898 1.1708984.3476563.9375 9.0212402-3.3411255 15.2814178-11.0832825 16.9926758-20.0341797C199.7341461 438.3722229 198.7532043 438.1792603 198.6281433 438.8329163zM129.9831238 445.29776c-11.42276-4.4837952-19.1235199-14.4019165-21.2587891-25.5683594-.1249847-.6532288-1.1060104-.4607544-.9824219.1875 2.1878052 11.4402771 10.0699463 21.6752625 21.8759766 26.3125C130.2426605 446.4732056 130.5915985 445.5379028 129.9831238 445.29776zM169.9772644 416.2274475c7.0048828-4.6816406 13.1259766-10.8964844 17.7016602-17.9716797.3595428-.5551147-.4820709-1.1000366-.8398438-.5429688-4.5019531 6.9619141-10.5249023 13.0761719-17.4174805 17.6826172C168.8670807 415.7658691 169.4301453 416.5900879 169.9772644 416.2274475zM504.8454285 157.1121979c.3016357.0317535.5255737-.2068481.5522461-.4423828 2.5136719-22.7490234 7.3124695-66.0214767 7.469696-66.916008.0454102-.140625.0249023-.2998047-.0546875-.4248047-.1655273-.2617188-.4165039-.6572266-53.0551453-7.59375-.291748-.0314865-.5327148.1693115-.5625.4414063l-7.4912109 68.5146408c-.0297852.2744141.1674805.5214844.4418945.5517578L504.8454285 157.1121979zM479.377655 144.3778229c.0002441 0 .0004883 0 .0004883 0 .4521484-.1609039-2.6524963 1.9911346 15.4882813-14.2275391l9.2924805 25.8786621-21.439209-2.3874512L479.377655 144.3778229zM460.1335144 82.7938461c19.527832 2.5742188 48.1333008 6.4394531 51.7109375 7.1689453-.6213379 4.9770508-5.017334 44.6699142-7.2033691 64.4496994l-9.0842285-25.2983398c-.1177063-.3274994-.5335388-.4435425-.8037109-.2041016-11.5268555 10.2949219-14.8300781 13.4091797-15.7258301 14.496582l-5.0952148-14.1235352-21.1672363 20.9060059L460.1335144 82.7938461z"
				fill="#000000" class="color000 svgShape"></path>
			<path d="M444.1278992,154.3089752l-0.3376465,2.9243164c-0.0318909,0.2711639,0.1617126,0.5235596,0.4428711,0.5546875
			l2.6411133,0.2858887l4.8466797,6.6447754c0.3652954,0.5020599,0.6720886,0.0313721,6.2182617-1.1914063
			c0.2796631-0.0699158,0.4429016-0.3562927,0.3608398-0.6298828c-0.2045898-0.6845703-1.0437012-2.0881348-2.2070313-3.8349609
			l43.0927734,4.6103516c-0.8093262,0.9033203-1.3395996,1.5019531-1.4423828,1.6181641
			c-0.1946716,0.2190094-0.1594849,0.5650024,0.0849609,0.7382813l4.7670898,3.3876953
			c0.2030029,0.1451721,0.4823608,0.1172638,0.6538086-0.0644531l4.4790039-4.7680664l3.0644531,0.3334961
			c0.2797241,0.0294495,0.5195007-0.171814,0.5507813-0.4384766c0,0,0.1806641-1.5429688,0.4882813-4.2636719l5.3652039-5.7119141
			c0.1386719-0.1474609,0.1748047-0.3642578,0.0913086-0.5488281l-2.4150391-5.3408203
			c-0.1159668-0.2559662-0.4266357-0.3731842-0.6850586-0.2382813c-0.2661133,0.1374512-0.6379395,0.4111328-1.0869141,0.7856445
			c1.7949219-15.5915527,4.5510254-39.4658127,6.2336426-53.8705978c0.6362305,0.8647461,1.0581055,1.4318848,1.1394043,1.5410156
			c0.1807251,0.2423553,0.5269165,0.266449,0.7407227,0.0683594l3.7167969-3.4414063
			c0.1831055-0.1699219,0.2128906-0.4492188,0.0698242-0.6542969l-4.5969238-6.567627
			c0.4591064-3.9232101,0.4020996-3.2157135,0.4020996-3.3161621c0-0.503418-0.0092773-0.5244141-3.467041-1.0625
			l-2.4558105-3.5087891c-0.1157227-0.1650391-0.3208008-0.2460938-0.5180664-0.2011719l-4.9560242,1.1015625
			c-0.2810364,0.0635834-0.4496765,0.3479691-0.3735352,0.6220703c0.0581055,0.2092285,0.1870117,0.501709,0.3647461,0.8508301
			c-10.6418457-1.4633789-26.9291992-3.581543-40.5249023-5.3337402c0.380127-0.2368164,0.6308594-0.394043,0.7041016-0.4399414
			c0.2526855-0.1595917,0.3106384-0.5007401,0.1269531-0.7333984l-3.6191406-4.5947266
			c-0.1542969-0.1962891-0.4301758-0.2470703-0.6455078-0.1220703l-7.6210938,4.4750977
			c-2.5217285-0.3168945-4.0102539-0.5092773-4.0107422-0.5092773c-0.2858887-0.0316467-0.5300598,0.1666565-0.5610352,0.4404297
			l-0.331543,2.9477539l-5.043457,2.9614258c-0.1743164,0.1025391-0.2700195,0.3007813-0.2416992,0.5009766l0.8115234,5.8056641
			c0.0389709,0.2779083,0.3004761,0.4753799,0.590332,0.421875c0.5546875-0.1074219,1.59375-0.5634766,2.9206543-1.2363281
			l-6.6962891,58.9826584c-0.2866211-0.3718262-0.4768066-0.6174316-0.5314941-0.6877441
			c-0.1735535-0.2242432-0.5159302-0.2697754-0.7416992-0.0537109l-4.2133789,4.0566406
			c-0.1801758,0.1738281-0.2045898,0.453125-0.0571289,0.6552734L444.1278992,154.3089752z M444.8410339,156.8475494
			l0.1542969-1.3493652l1.0820313,1.4833984L444.8410339,156.8475494z M510.4079285,163.8700104l-1.8225098-0.1984863
			l2.1044922-2.2404785C510.5607605,162.5536041,510.4640808,163.3866119,510.4079285,163.8700104z M514.2008667,149.5545807
			l2.0385742,4.5078125c-7.7399902,8.192627,1.6112671-1.7159424-13.4203796,14.2871094l-3.9575195-2.8125
			c0.4853516-0.5463867,1.0544434-1.1831055,1.6801758-1.8789063c0.012207-0.010498,0.020752-0.0239258,0.0319824-0.0354004
			C502.7937927,161.1548462,511.4781494,151.5667419,514.2008667,149.5545807z M519.7516479,83.2791977
			c-0.0405273,0.315918-0.1052246,0.8464355-0.2089844,1.7260742l-1.4050293-2.0073242
			C518.968689,83.1329575,519.46698,83.2220688,519.7516479,83.2791977z M514.2565308,79.1971664l9.6757813,13.8242188
			l-2.9882813,2.7666016c-0.4431152-0.5974121-0.9729004-1.3173828-1.546875-2.1027832
			c-0.012207-0.0180664-0.0234375-0.0354004-0.0375977-0.0515137c-1.7415771-2.3838654-7.8986816-10.8723984-9.1620789-13.5341797
			L514.2565308,79.1971664z M454.1867371,74.5213852c0.4560547,0.0583496,1.2160645,0.1552734,2.2214355,0.2822266
			l-2.4123535,1.4165039L454.1867371,74.5213852z M448.6696472,80.5077133l16.902832-9.9248047l3.0048828,3.8144531
			c-3.1480103,1.9684448-15.7565918,9.7416534-19.2226563,11.0107422L448.6696472,80.5077133z M453.0246277,84.7496567
			c4.4694824-2.3708496,11.1630859-6.4570313,14.5136719-8.5297852c14.0454102,1.8137207,31.4575195,4.0759277,42.4658203,5.5905762
			c1.8862305,3.192627,5.985321,8.9040527,8.462616,12.2956543c-1.7075195,14.6013184-4.652832,40.1203537-6.4862976,56.0507736
			c-3.3059082,3.0671387-8.8601074,9.1430664-11.970459,12.5983887l-44.6489258-4.7766113
			c-2.8608398-4.1740723-7.052002-9.7104492-9.2250977-12.5483398L453.0246277,84.7496567z M444.2785339,144.6541901
			c3.4975586,4.5263672,11.3828125,14.9785156,12.8613281,18.0371094l-4.8081055,1.1679688
			c-4.6766663-6.4117584-7.7340698-10.6035004-11.5512695-15.8369141L444.2785339,144.6541901z" fill="#000000"
				class="color000 svgShape"></path>
			<path d="M480.6022644,117.6341782c4.3930664,0,7.9543457-3.5615234,7.9543457-7.9545898s-3.5612793-7.9543457-7.9543457-7.9543457
			s-7.9545898,3.5612793-7.9545898,7.9543457S476.209198,117.6341782,480.6022644,117.6341782z" fill="#000000"
				class="color000 svgShape"></path>
		</svg></g>
</svg>