<svg width="505" height="336" viewBox="0 0 505 336" fill="none" xmlns="http://www.w3.org/2000/svg">
<path fill-rule="evenodd" clip-rule="evenodd" d="M505 42C505 18.804 486.196 0 463 0H42C18.804 0 0 18.804 0 42V294C0 317.196 18.804 336 42 336H463C486.196 336 505 317.196 505 294V42ZM57 32C43.1929 32 32 43.1929 32 57V279C32 292.807 43.1929 304 57 304H446.425C460.232 304 471.425 292.807 471.425 279V57C471.425 43.1929 460.232 32 446.425 32H57Z" fill="#EC2224"/>
<path fill-rule="evenodd" clip-rule="evenodd" d="M505 42C505 18.804 486.196 0 463 0H42C18.804 0 0 18.804 0 42V294C0 317.196 18.804 336 42 336H463C486.196 336 505 317.196 505 294V42ZM57 32C43.1929 32 32 43.1929 32 57V279C32 292.807 43.1929 304 57 304H446.425C460.232 304 471.425 292.807 471.425 279V57C471.425 43.1929 460.232 32 446.425 32H57Z" fill="#EC2224"/>
<rect x="45" y="40" width="256" height="256" rx="36" fill="#1A1A1A"/>
<path d="M171.098 83.8541C171.697 82.0115 174.303 82.0115 174.902 83.8541L192.757 138.806C193.025 139.631 193.793 140.188 194.659 140.188H252.44C254.377 140.188 255.183 142.668 253.615 143.807L206.87 177.769C206.169 178.278 205.876 179.181 206.143 180.005L223.999 234.957C224.597 236.8 222.488 238.332 220.921 237.193L174.176 203.231C173.475 202.722 172.525 202.722 171.824 203.231L125.079 237.193C123.512 238.332 121.403 236.8 122.001 234.957L139.857 180.005C140.124 179.181 139.831 178.278 139.13 177.769L92.3847 143.807C90.8173 142.668 91.6228 140.188 93.5603 140.188H151.341C152.207 140.188 152.975 139.631 153.243 138.807L171.098 83.8541Z" fill="white"/>
<path d="M392.025 287.16C388.322 292.762 382.056 296.132 375.341 296.132H315.839C309.471 296.132 305.656 289.055 309.155 283.735L389.482 161.634L310.243 52.7065C306.397 47.4188 310.174 40.0003 316.712 40.0003H368.832C379.682 40.0003 389.879 45.178 396.282 53.937L454.482 133.563C466.816 150.437 467.353 173.203 455.827 190.64L392.025 287.16Z" fill="#1A1A1A"/>
</svg>
